<?xml version="1.0" standalone="no"?>
<!DOCTYPE svg PUBLIC "-//W3C//DTD SVG 20010904//EN"
 "http://www.w3.org/TR/2001/REC-SVG-20010904/DTD/svg10.dtd">
<svg version="1.0" xmlns="http://www.w3.org/2000/svg"
 width="447.000000pt" height="300.000000pt" viewBox="0 0 447.000000 300.000000"
 preserveAspectRatio="xMidYMid meet">

<g transform="translate(0.000000,300.000000) scale(0.100000,-0.100000)"
fill="#000000" stroke="none">
<path d="M494 2710 c-107 -21 -208 -103 -258 -209 -28 -60 -31 -75 -31 -161 0
-85 3 -101 29 -149 67 -129 136 -195 369 -355 l115 -79 6 -53 c3 -29 44 -163
91 -299 l86 -246 -33 -39 c-18 -21 -81 -82 -140 -134 -156 -140 -198 -204
-218 -332 -36 -226 117 -433 351 -475 138 -24 235 11 492 179 224 147 289 175
408 176 81 1 90 -1 170 -41 70 -35 113 -68 259 -203 209 -193 283 -237 412
-247 358 -27 582 355 386 660 -34 53 -67 93 -182 221 -38 42 -66 79 -63 82 8
8 212 7 248 -1 16 -4 36 -2 46 3 21 12 53 1 106 -35 37 -26 39 -26 135 -16 71
8 117 19 164 41 43 19 70 27 79 21 8 -5 104 -8 214 -7 111 1 206 -1 211 -5 17
-10 83 12 93 31 16 33 21 163 7 197 -13 31 -67 62 -86 50 -4 -3 -15 6 -24 20
-24 37 -73 34 -109 -6 -24 -28 -31 -30 -60 -24 -17 4 -76 7 -129 7 -118 -1
-139 12 -88 55 18 15 41 45 51 68 21 46 25 135 8 184 -9 25 -9 39 1 59 7 15
15 64 17 109 l6 81 56 59 c69 73 91 130 91 233 0 93 -35 175 -100 234 -69 62
-121 81 -225 81 -79 0 -96 -4 -143 -28 -62 -32 -128 -90 -165 -145 -19 -26
-41 -42 -76 -55 -56 -20 -95 -60 -112 -116 l-11 -38 -48 5 c-30 3 -69 -2 -103
-13 -46 -14 -58 -15 -78 -4 -15 8 -74 15 -162 17 -113 4 -146 1 -182 -13 -25
-9 -48 -14 -53 -11 -9 5 -25 94 -37 206 -27 248 -99 392 -222 446 -58 26 -175
24 -243 -4 -91 -36 -167 -105 -230 -208 -77 -126 -116 -170 -174 -199 -110
-55 -303 -14 -434 92 -28 23 -55 60 -78 105 -66 131 -163 206 -295 228 -35 5
-66 9 -69 9 -3 -1 -24 -5 -46 -9z m2689 -631 c15 -25 -1 -85 -32 -118 -39 -42
-63 -41 -60 2 1 17 -4 44 -11 60 -10 21 -11 33 -2 53 11 22 17 25 54 22 24 -2
45 -10 51 -19z m-1298 -143 c58 -25 84 -83 87 -199 2 -94 -14 -110 -118 -115
l-76 -4 6 -42 c8 -49 30 -86 52 -86 8 0 23 13 32 30 13 23 24 30 48 30 80 0
64 -94 -23 -139 -12 -6 -43 -11 -68 -11 -43 0 -51 4 -86 43 -51 54 -63 98 -62
227 0 145 36 235 107 266 40 17 59 17 101 0z m216 -2 c16 -15 21 -15 62 1 75
28 147 -4 178 -80 16 -41 31 -412 18 -437 -8 -15 -19 -18 -52 -16 l-42 3 -6
195 c-4 158 -9 201 -23 228 -25 48 -63 42 -91 -13 -18 -35 -20 -60 -20 -215 0
-96 -4 -181 -8 -187 -12 -19 -84 -17 -91 3 -8 21 -8 519 1 527 12 13 56 7 74
-9z m850 -7 c74 -48 113 -190 91 -329 -20 -133 -73 -198 -161 -198 -92 0 -145
68 -164 208 -12 93 3 198 36 257 45 81 130 107 198 62z m489 10 c47 -24 70
-73 70 -148 0 -95 -11 -119 -54 -119 -19 0 -38 6 -42 12 -5 7 -8 45 -9 85 0
85 -14 108 -46 77 -29 -29 -28 -111 1 -159 12 -19 25 -35 28 -35 4 0 31 -21
60 -46 50 -44 52 -48 52 -96 0 -41 -5 -54 -28 -78 -77 -77 -248 -28 -240 69 3
30 7 36 28 39 17 2 34 -6 50 -23 14 -15 34 -25 52 -25 43 0 34 29 -22 73 -28
20 -62 56 -77 79 -24 36 -28 51 -28 112 1 85 24 140 74 173 38 26 92 30 131
10z m-751 -11 c14 -16 7 -35 -88 -256 -39 -90 -71 -168 -71 -172 0 -4 33 -8
74 -8 93 0 106 -5 106 -40 0 -47 -15 -51 -171 -48 l-144 3 -3 25 c-2 15 30
105 77 215 43 105 77 193 74 197 -2 5 -31 8 -63 8 -62 0 -90 15 -90 49 0 36
20 41 156 41 99 0 134 -3 143 -14z m-1209 -56 c13 -8 9 -21 -24 -87 -42 -87
-98 -173 -160 -247 -29 -36 -35 -47 -21 -43 105 32 183 33 275 6 72 -21 140
-97 198 -221 27 -56 61 -117 75 -134 15 -18 27 -39 27 -48 0 -39 30 -75 73
-87 23 -7 51 -20 61 -30 19 -18 19 -19 1 -39 -40 -44 -83 -63 -136 -58 -85 9
-150 76 -249 258 -100 184 -146 231 -234 238 -46 4 -65 0 -109 -21 -29 -15
-65 -39 -80 -55 l-28 -29 32 -89 c34 -97 63 -159 79 -169 5 -3 10 -24 10 -46
0 -38 -2 -40 -57 -65 -66 -29 -127 -41 -137 -26 -19 31 -278 794 -283 834 -5
43 -4 47 23 61 51 26 145 50 156 39 5 -5 30 -81 55 -168 25 -88 48 -162 51
-166 8 -9 91 114 160 237 72 129 89 147 148 156 72 10 78 10 94 -1z m948 -593
c2 -11 -3 -17 -17 -17 -23 0 -35 15 -26 31 10 15 39 6 43 -14z m-138 -12 c0
-21 5 -25 30 -25 38 0 47 -18 51 -110 4 -69 3 -75 -16 -75 -18 0 -20 7 -22 67
-1 74 -9 96 -26 79 -7 -7 -12 -42 -12 -79 -1 -60 -3 -67 -20 -67 -19 0 -20 8
-20 110 0 122 0 125 21 125 8 0 14 -10 14 -25z m270 5 c0 -13 7 -20 19 -20 34
0 61 -47 61 -104 0 -66 -20 -96 -64 -96 -51 0 -56 13 -56 132 0 101 1 108 20
108 13 0 20 -7 20 -20z m268 -7 c3 -21 32 -36 48 -24 5 3 9 15 9 26 0 29 39
27 43 -2 2 -13 10 -23 18 -23 21 0 17 -21 -6 -27 -22 -6 -24 -28 -12 -98 5
-25 10 -35 15 -27 5 6 17 12 29 12 19 0 20 5 17 93 -4 89 -3 92 19 95 22 3 22
2 22 -116 0 -96 -3 -121 -15 -126 -8 -3 -18 2 -23 11 -6 11 -11 12 -16 4 -10
-16 -62 -13 -77 5 -11 14 -13 14 -21 0 -11 -19 -59 -21 -76 -4 -7 7 -12 40
-12 79 0 54 -3 68 -17 74 -17 6 -17 7 -1 19 10 7 15 16 12 19 -4 3 -4 13 0 22
8 23 40 14 44 -12z m1075 -38 l-3 -60 18 35 c13 28 24 36 49 38 27 3 35 -1 44
-22 15 -33 4 -78 -19 -74 -12 2 -16 11 -14 30 2 14 -2 29 -7 33 -23 14 -11
-53 12 -72 48 -38 39 -83 -17 -83 -38 0 -66 24 -48 42 8 8 15 8 27 -2 8 -7 18
-10 22 -7 3 4 -6 16 -20 28 -15 11 -27 28 -28 37 -1 9 -6 -3 -11 -28 -13 -57
-24 -70 -59 -70 -36 0 -56 21 -65 67 -11 58 6 106 43 123 19 9 33 23 33 33 0
13 6 17 23 15 20 -3 22 -8 20 -63z m-654 19 l31 -6 0 -97 c0 -116 -12 -145
-58 -149 -35 -4 -62 11 -62 34 0 16 36 19 45 4 7 -12 25 -4 25 11 0 5 -9 9
-19 9 -24 0 -51 36 -51 67 0 20 -4 21 -37 16 -21 -3 -39 -6 -39 -7 -1 -1 3
-12 8 -26 6 -15 12 -20 15 -12 6 16 43 16 43 -1 0 -35 -66 -51 -90 -22 -21 26
-24 107 -6 144 15 27 22 32 49 29 27 -2 34 -9 44 -38 7 -19 12 -28 12 -19 1
18 38 69 50 69 5 0 23 -3 40 -6z m-1258 -28 c15 -33 4 -78 -19 -74 -12 2 -16
11 -14 30 2 14 -2 29 -7 33 -23 14 -11 -53 12 -72 48 -38 39 -83 -17 -83 -38
0 -66 24 -48 42 8 8 15 8 27 -2 28 -24 28 -1 -1 23 -31 27 -39 82 -15 111 21
25 69 20 82 -8z m59 -50 c0 -41 4 -77 9 -81 17 -10 31 32 31 94 0 54 2 61 20
61 19 0 20 -7 20 -94 l0 -93 -50 -2 c-62 -1 -70 11 -70 113 0 69 2 76 20 76
18 0 20 -7 20 -74z m192 49 c8 -19 8 -31 -1 -51 -13 -29 -35 -28 -37 2 -3 48
-4 50 -14 34 -14 -22 -13 -26 21 -64 19 -23 29 -44 27 -58 -3 -19 -9 -23 -42
-23 -26 0 -42 6 -50 17 -14 23 1 35 25 19 33 -20 33 -6 -1 27 -16 17 -30 41
-30 54 0 63 78 96 102 43z m188 -70 c0 -87 -2 -95 -19 -95 -18 0 -20 9 -23 88
-4 100 -3 102 23 102 17 0 19 -8 19 -95z m324 73 c11 -15 16 -46 16 -96 l0
-73 -47 3 c-41 3 -50 7 -61 31 -18 38 2 81 41 85 30 4 30 4 21 26 -8 20 -24
21 -24 2 0 -15 -24 -28 -34 -19 -10 10 -7 38 6 51 20 20 65 14 82 -10z m631
12 c3 -6 -5 -14 -18 -19 -31 -12 -37 -29 -37 -102 0 -52 -2 -59 -20 -59 -19 0
-20 7 -20 95 l0 95 44 0 c25 0 48 -5 51 -10z m96 -6 c18 -22 23 -114 7 -144
-19 -35 -70 -40 -92 -8 -21 29 -21 116 0 146 18 26 65 30 85 6z m69 -51 c0
-38 4 -74 9 -82 18 -29 31 2 31 75 0 67 2 74 20 74 18 0 20 -7 22 -80 0 -44 1
-86 2 -92 1 -9 -16 -14 -46 -16 -64 -3 -78 18 -78 115 0 66 2 73 20 73 18 0
20 -7 20 -67z m209 50 c5 -10 10 -52 12 -93 4 -70 3 -75 -16 -75 -18 0 -20 8
-23 70 -5 120 -42 114 -42 -7 0 -61 -2 -68 -20 -68 -19 0 -20 7 -20 95 l0 95
50 0 c37 0 52 -4 59 -17z"/>
<path d="M1805 1837 c-8 -14 -18 -48 -22 -76 l-6 -52 49 3 c48 3 49 4 52 38 3
36 -24 101 -45 108 -6 2 -19 -8 -28 -21z"/>
<path d="M2858 1843 c-29 -33 -40 -92 -36 -187 4 -97 29 -171 58 -171 44 0 77
189 50 292 -11 45 -34 83 -50 83 -4 0 -14 -8 -22 -17z"/>
<path d="M2567 1203 c-11 -10 -8 -111 2 -118 14 -8 31 28 31 64 0 49 -15 73
-33 54z"/>
<path d="M2838 1213 c-20 -5 -22 -30 -10 -98 5 -25 10 -35 15 -27 5 6 17 12
28 12 16 0 19 7 19 54 0 40 -4 55 -16 60 -9 3 -16 5 -17 5 -1 -1 -10 -3 -19
-6z"/>
<path d="M3835 1195 c-3 -8 -7 -21 -9 -29 -7 -22 14 -90 24 -80 10 10 15 52
12 97 -2 29 -20 37 -27 12z"/>
<path d="M3090 1201 c0 -5 -3 -16 -6 -25 -4 -11 -1 -16 10 -16 10 0 16 9 16
25 0 14 -4 25 -10 25 -5 0 -10 -4 -10 -9z"/>
<path d="M3206 1194 c-19 -48 3 -128 25 -93 17 27 8 109 -11 109 -4 0 -11 -7
-14 -16z"/>
<path d="M2695 1130 c-8 -13 4 -50 16 -50 13 0 11 17 -3 24 -10 5 -10 7 0 12
14 7 16 24 3 24 -6 0 -13 -5 -16 -10z"/>
<path d="M3426 1194 c-8 -21 -6 -74 3 -99 8 -19 8 -19 19 2 13 24 15 56 6 91
-7 26 -19 29 -28 6z"/>
<path d="M3969 2690 c-63 -41 -94 -99 -94 -176 0 -75 32 -130 101 -170 54 -32
141 -37 190 -11 141 74 152 266 20 355 -41 27 -57 32 -110 32 -53 0 -70 -5
-107 -30z"/>
</g>
</svg>
